<!DOCTYPE svg PUBLIC "-//W3C//DTD SVG 1.1//EN" "http://www.w3.org/Graphics/SVG/1.1/DTD/svg11.dtd">
<!-- Uploaded to: SVG Repo, www.svgrepo.com, Transformed by: SVG Repo Mixer Tools -->
<svg width="800px" height="800px" viewBox="0 0 24 24" fill="none" xmlns="http://www.w3.org/2000/svg">
<g id="SVGRepo_bgCarrier" stroke-width="0"/>
<g id="SVGRepo_tracerCarrier" stroke-linecap="round" stroke-linejoin="round"/>
<g id="SVGRepo_iconCarrier">
<path clip-rule="evenodd" d="M5 1C3.89543 1 3 1.89543 3 3V21C3 22.1046 3.89543 23 5 23H19C20.1046 23 21 22.1046 21 21V3C21 1.89543 20.1046 1 19 1H5ZM8 3C6.89551 3 6 3.89539 6 5V9C6 10.1046 6.89551 11 8 11H16C17.1045 11 18 10.1046 18 9V5C18 3.89539 17.1045 3 16 3H8ZM8.5 18.5C8.5 19.0522 8.94775 19.5 9.5 19.5C10.0522 19.5 10.5 19.0522 10.5 18.5V17.5H11.5C12.0522 17.5 12.5 17.0522 12.5 16.5C12.5 15.9478 12.0522 15.5 11.5 15.5H10.5V14.5C10.5 13.9478 10.0522 13.5 9.5 13.5C8.94775 13.5 8.5 13.9478 8.5 14.5V15.5H7.5C6.94775 15.5 6.5 15.9478 6.5 16.5C6.5 17.0522 6.94775 17.5 7.5 17.5H8.5V18.5ZM18 15C18 15.5522 17.5522 16 17 16C16.4478 16 16 15.5522 16 15C16 14.4478 16.4478 14 17 14C17.5522 14 18 14.4478 18 15ZM16 18C16 18.5522 15.5522 19 15 19C14.4478 19 14 18.5522 14 18C14 17.4478 14.4478 17 15 17C15.5522 17 16 17.4478 16 18Z" fill="#ff5350" fill-rule="evenodd"/>
</g>
</svg>